<?xml version="1.0" encoding="UTF-8"?>
<svg version="1.1" viewBox="0 0 1600 1600" width="30px" height="30px" xmlns="http://www.w3.org/2000/svg">
<path transform="translate(871 86.8)" d="m0 0c1.91 0.186 3.82 0.363 5.72 0.539 7.47 0.703 14.9 1.6 22.3 2.66 0.647 0.0915 1.29 0.183 1.96 0.277 25.3 3.6 50.2 8.65 75 14.7 0.717 0.175 1.43 0.349 2.17 0.529 37.3 9.15 73.6 22.2 109 37.5 0.687 0.297 1.37 0.594 2.08 0.899 14.7 6.35 14.7 6.35 21.9 9.98 0.643 0.325 1.29 0.651 1.95 0.986 10.5 5.32 20.9 10.8 31.2 16.5 2.25 1.24 4.52 2.47 6.78 3.69 40.1 21.7 77.9 48.8 112 78.5 1.78 1.52 3.57 3.04 5.36 4.55 10.8 9.15 10.8 9.15 15.6 14.2 1.74 1.74 3.56 3.34 5.43 4.94 4.02 3.5 7.82 7.16 11.6 10.9 0.66 0.659 1.32 1.32 2 2 1.38 1.38 2.77 2.77 4.15 4.15 2.09 2.1 4.19 4.19 6.29 6.29 1.35 1.35 2.71 2.71 4.06 4.06 0.617 0.615 1.23 1.23 1.87 1.86 3.76 3.78 7.33 7.67 10.8 11.7 1.92 2.22 3.9 4.39 5.88 6.56 3.9 4.32 7.6 8.77 11.3 13.3 2.05 2.51 4.14 4.98 6.25 7.43 16.7 19.5 31.4 40.6 45.5 62 1.45 2.2 2.91 4.39 4.38 6.58 13.8 20.7 25.5 42.9 36.8 65.1 1.18 2.32 2.38 4.63 3.59 6.94 36.5 70.1 57.5 150 70.8 268 0.0424 0.668 0.0847 1.34 0.128 2.02 0.896 14.5 1.07 29 1.06 43.6-6.04e-4 1.16-0.00121 2.32-0.00183 3.52-0.108 76.9-12.8 153-37.2 226-0.227 0.679-0.453 1.36-0.687 2.06-6.49 19.4-14 38.3-22.3 56.9-0.459 1.03-0.917 2.06-1.39 3.13-16.8 37.6-36.3 73.9-59.6 108-0.712 1.05-1.42 2.09-2.16 3.17-8.84 12.9-18 25.6-27.6 37.9-2.11 2.75-4.13 5.55-6.13 8.38-7.2 9.97-15.6 19-23.9 28.1-4.07 4.46-8.05 8.99-11.9 13.7-1.84 2.18-3.71 4.18-5.73 6.18-2.09 2.07-4.15 4.16-6.22 6.25-1.74 1.75-3.49 3.51-5.23 5.26-0.864 0.873-1.73 1.75-2.62 2.64-4.48 4.5-9.01 8.87-13.9 13-1.77 1.55-3.4 3.18-5.03 4.88-3.7 3.76-7.76 7-11.9 10.3-2.68 2.2-5.26 4.48-7.82 6.82-28.8 26.1-61.8 48.5-95 68.5-1.08 0.654-1.08 0.654-2.18 1.32-37.5 22.7-76.9 41.1-118 56.7-0.938 0.362-1.88 0.724-2.84 1.1-41.3 15.9-84.7 26.2-128 33.9-1.7 0.305-1.7 0.305-3.44 0.616-33.5 5.89-67.6 8.28-102 9.38-1.25 0.0414-2.5 0.0828-3.79 0.125-35.9 0.989-72.6-1.57-108-6.82-2.14-0.317-4.29-0.627-6.43-0.938-71.9-10.5-141-31.7-207-63.4-0.811-0.391-1.62-0.783-2.46-1.19-3.81-1.85-7.6-3.75-11.4-5.7-1.63-0.839-3.26-1.67-4.9-2.5-20.4-10.4-40.2-21.7-59.3-34.3-1.89-1.25-3.79-2.49-5.7-3.74-9.97-6.54-19.6-13.5-29.2-20.6l-2.1-1.54c-17.6-12.9-34.5-26.7-50.6-41.4-4.43-4.01-8.91-7.95-13.5-11.8-2.39-2.01-4.66-3.98-6.75-6.31v-2c-0.58-0.255-1.16-0.51-1.76-0.773-2.47-1.35-4.12-2.86-6.1-4.86-0.723-0.724-1.45-1.45-2.19-2.2-0.746-0.758-1.49-1.52-2.26-2.3-0.734-0.735-1.47-1.47-2.22-2.23-4.13-4.17-8.1-8.42-11.9-12.9-1.57-1.78-3.22-3.43-4.93-5.07-3.74-3.68-6.96-7.72-10.2-11.8-2.33-2.82-4.76-5.51-7.25-8.19-9.12-9.93-17.1-20.9-25.1-31.7l-1.23-1.66c-30.5-41-57.8-84.7-78.8-131-0.406-0.891-0.812-1.78-1.23-2.7-13.7-30.1-25.1-60.7-34.8-92.3l-1.07-3.5c-14.7-49-23.6-101-26.9-152-0.0861-1.17-0.172-2.34-0.261-3.54-1.04-15.2-0.941-30.4-0.927-45.6 6.21e-4 -1.07 6.21e-4 -1.07 0.00126-2.16 0.0152-21 0.0588-41.8 2.19-62.7 0.152-1.55 0.304-3.1 0.457-4.65 8.43-84.4 30.2-170 70.3-248 1.44-2.79 2.85-5.59 4.26-8.4 21.9-43.2 48.6-84.1 79-122 0.519-0.651 1.04-1.3 1.57-1.97 6.2-7.76 12.5-15.4 19.2-22.6 1.96-2.12 3.87-4.26 5.76-6.44 7.7-8.83 15.7-17.3 24-25.5 3.56-3.52 7.08-7.06 10.6-10.6 1.56-1.57 3.11-3.13 4.67-4.7 0.769-0.777 1.54-1.55 2.33-2.36 4.79-4.81 9.7-9.36 14.9-13.8 1.16-1.01 2.31-2.02 3.46-3.04 19.1-16.7 38.9-32.2 59.5-47 1.22-0.875 1.22-0.875 2.47-1.77 10.9-7.82 22-15.2 33.6-22.1 2.71-1.63 5.4-3.31 8.08-4.98 14.5-8.91 29.1-17.7 44.5-25 2.93-1.41 5.84-2.86 8.76-4.3 68.8-33.9 143-56.6 219-66.9 0.678-0.0924 1.36-0.185 2.05-0.28 55.2-7.47 112-8.33 167-2.92zm-139 99.2c-0.75 0.0872-1.5 0.174-2.27 0.264-41.5 4.89-82 13.7-122 26.7-1.21 0.396-2.43 0.792-3.68 1.2-17.5 5.75-34.5 12.3-51.3 19.8-1.04 0.461-2.07 0.921-3.14 1.4-6.99 3.13-13.9 6.33-20.9 9.6-1.29 0.608-1.29 0.608-2.6 1.23-14.3 6.8-27.9 14.7-41.4 22.8-0.833 0.497-1.67 0.994-2.53 1.51-22.3 13.3-43.5 28-63.8 44.2-1.72 1.37-3.46 2.71-5.21 4.05-7.2 5.54-14 11.4-20.6 17.6-2.26 2.12-4.54 4.18-6.88 6.2-13.2 11.4-26.3 23.5-37.5 36.8-1.58 1.82-3.25 3.5-4.97 5.19-3.71 3.66-7.12 7.53-10.5 11.5-0.837 0.971-1.67 1.94-2.54 2.94-5.48 6.39-10.8 12.9-15.8 19.6-1.75 2.32-3.54 4.61-5.36 6.88-7.7 9.71-14.6 19.9-21.5 30.2-0.466 0.696-0.931 1.39-1.41 2.11-6.4 9.59-12.5 19.3-18.3 29.3-0.533 0.904-1.07 1.81-1.62 2.74-45.9 78.3-73.6 166-80.6 374 0.221 2.01 0.435 4.02 0.646 6.04 5.52 51.1 17.6 102 36.6 150 0.375 0.961 0.751 1.92 1.14 2.91 17.9 45.6 40.4 89.2 68.9 129 0.974 1.39 1.95 2.78 2.92 4.17 1.07 1.53 2.14 3.05 3.21 4.58 0.503 0.722 1.01 1.44 1.53 2.19 2.95 4.19 6.01 8.18 9.35 12.1 4.48-0.876 7.16-3.42 10.5-6.38 0.928-0.808 0.928-0.808 1.88-1.63 3.94-3.45 7.79-6.99 11.6-10.6 5.75-5.34 11.8-10.2 18-14.9 2.08-1.61 4.15-3.23 6.21-4.86 15.1-11.9 30.6-23.1 46.7-33.7 0.679-0.446 1.36-0.892 2.06-1.35 9.11-5.98 18.3-11.8 27.7-17.3 1.67-0.982 3.33-1.97 5-2.96 11.4-6.79 22.8-13.5 34.8-19.2 2.93-1.41 5.84-2.86 8.76-4.3 56.2-27.7 115-47 177-59.9 1.2-0.254 2.41-0.508 3.65-0.77 23-4.8 46.2-7.77 69.5-9.92 1.3-0.119 2.6-0.239 3.93-0.362 3.96-0.346 7.92-0.663 11.9-0.951 0.671-0.0491 1.34-0.0983 2.03-0.149 16-1.12 32.1-1.1 48.2-1.1 0.717-5.89e-4 1.43-0.00118 2.17-0.00179 22.9-0.0133 45.7 0.523 68.5 3.02 2.1 0.229 4.21 0.449 6.31 0.666 32.3 3.37 64.3 8.74 95.8 16.6 0.691 0.17 1.38 0.341 2.09 0.516 38.7 9.58 76.3 22.6 113 38.5 0.687 0.297 1.37 0.594 2.08 0.899 14.7 6.35 14.7 6.35 21.9 9.98 0.965 0.488 0.965 0.488 1.95 0.986 11.5 5.83 22.8 12 34.1 18.1 1.41 0.767 1.41 0.767 2.85 1.55 15.5 8.47 30.5 17.6 45.2 27.5 0.746 0.501 1.49 1 2.26 1.52 15.1 10.2 29.8 20.8 44.1 32.1 1.7 1.35 3.41 2.68 5.13 4.01 10.8 8.32 21 17.2 31.1 26.3 3.66 3.32 7.4 6.24 11.5 9 54.8-65.6 91.7-150 127-336 0.0564-0.788 0.113-1.58 0.171-2.39 4.64-66.5-3.12-134-20.2-199-0.315-1.2-0.631-2.4-0.956-3.64-10.9-40.9-27.1-79.6-46-117-0.78-1.56-0.78-1.56-1.58-3.14-10.7-21.3-23.1-41.3-36.5-61-1.85-2.73-3.69-5.46-5.53-8.2-5.11-7.59-10.3-15-16.2-22-2.12-2.52-4.14-5.09-6.16-7.68-9.31-12-19.3-23.3-29.6-34.4-2.21-2.39-4.37-4.81-6.55-7.23-4.89-5.34-9.95-10.5-15.1-15.6-0.748-0.753-1.5-1.51-2.27-2.28-4.11-4.1-8.31-8.03-12.7-11.8-2.61-2.26-5.12-4.61-7.65-6.96-5.54-5.11-11.3-9.91-17.2-14.6-1.15-0.934-2.31-1.87-3.46-2.8-14.1-11.4-28.5-22.1-43.5-32.2-0.747-0.501-1.49-1-2.26-1.52-12.7-8.46-25.6-16.2-38.8-23.8-3.06-1.76-6.1-3.55-9.14-5.34-7.08-4.13-14.4-7.74-21.7-11.3-0.812-0.396-1.62-0.792-2.46-1.2-12.4-6.02-24.8-11.7-37.5-16.8-0.928-0.376-1.86-0.752-2.81-1.14-52.4-21.1-107-34.5-163-40.9-0.734-0.0836-1.47-0.167-2.23-0.253-43.8-4.89-89-4.86-133 0.253z" fill="#000002"/>
<path transform="translate(790 350)" d="m0 0c49.5-1.44 98.9 9.56 143 33.1 0.738 0.392 1.48 0.784 2.24 1.19 8.38 4.46 16.5 8.98 24.1 14.8 2.02 1.54 4.05 3.01 6.13 4.46 7.33 5.1 14 10.5 20.6 16.6 1.41 1.26 2.83 2.51 4.25 3.75 0.965 0.845 0.965 0.845 1.95 1.71 1.59 1.36 3.22 2.68 4.86 3.98 2.92 2.55 5.34 5.21 7.84 8.16 2.03 2.33 4.13 4.56 6.26 6.79 24.5 25.9 42.8 58.3 54.8 91.6 0.267 0.723 0.534 1.45 0.81 2.19 7.05 19.2 11.7 39.5 14.2 59.8 0.103 0.83 0.206 1.66 0.312 2.51 8.87 74.6-13.2 150-59.3 209-3.71 4.56-7.64 8.89-11.6 13.2-2.04 2.23-4.03 4.49-6 6.79-5.97 6.83-12.4 12.8-19.5 18.5-2.97 2.4-5.88 4.87-8.79 7.35-54.9 45.7-130 66.5-201 60.4-6.53-0.658-13-1.5-19.5-2.43-0.804-0.112-1.61-0.224-2.44-0.34-53.9-7.73-105-34.1-145-70.7-0.949-0.844-1.9-1.69-2.88-2.56-52.5-46.9-84.1-116-88.9-186-4.05-76.7 19.9-151 71.4-209 0.744-0.815 1.49-1.63 2.25-2.47 1.94-2.14 3.81-4.33 5.68-6.53 2.82-3.23 5.83-6.02 9.11-8.79 2.27-1.98 4.44-4.04 6.61-6.13 7.63-7.27 15.9-13.4 24.6-19.4 1.94-1.35 3.87-2.71 5.8-4.08 38.7-27.1 84.7-41.6 131-46.4 1.22-0.131 2.44-0.263 3.7-0.398 4.24-0.378 8.47-0.539 12.7-0.684z" fill="#000002"/>
</svg>
